<?xml version="1.0" encoding="utf-8"?>
<!-- Generator: Adobe Illustrator 27.2.0, SVG Export Plug-In . SVG Version: 6.00 Build 0)  -->
<svg version="1.1" id="Layer_1" xmlns="http://www.w3.org/2000/svg" xmlns:xlink="http://www.w3.org/1999/xlink" x="0px" y="0px"
	 viewBox="0 0 24 24" style="enable-background:new 0 0 24 24;" xml:space="preserve">
<style type="text/css">
	.st0{fill:#FFE576;fill-opacity:0;}
	.st1{fill:#FFE576;}
</style>
<g>
	<g>
		<rect class="st0" width="24" height="24"/>
		<path class="st1" d="M15,16H9c-0.6,0-1,0.4-1,1s0.4,1,1,1h6c0.6,0,1-0.4,1-1S15.6,16,15,16z"/>
		<path class="st1" d="M9,14h3c0.6,0,1-0.4,1-1s-0.4-1-1-1H9c-0.6,0-1,0.4-1,1S8.4,14,9,14z"/>
		<path class="st1" d="M19.7,8.3l-5.4-6C14.1,2.1,13.8,2,13.6,2h-7C5.2,2,4,3.1,4,4.5c0,0,0,0,0,0v15C4,20.9,5.2,22,6.6,22
			c0,0,0,0,0,0h10.9c1.4,0,2.5-1.1,2.6-2.5c0,0,0,0,0,0V9C20,8.8,19.9,8.5,19.7,8.3z M14,5l2.7,3h-2C14.3,8,14,7.6,14,7.2
			c0,0,0,0,0,0V5z M17.4,20H6.6C6.3,20,6,19.8,6,19.5c0,0,0,0,0,0v-15C6,4.2,6.3,4,6.6,4c0,0,0,0,0,0H12v3.2c0,1.5,1.2,2.8,2.7,2.8
			H18v9.5C18,19.8,17.7,20,17.4,20C17.4,20,17.4,20,17.4,20z"/>
	</g>
</g>
</svg>
