<?xml version="1.0" encoding="utf-8"?>
<!-- Generator: Adobe Illustrator 27.2.0, SVG Export Plug-In . SVG Version: 6.00 Build 0)  -->
<svg version="1.1" id="Layer_1" xmlns="http://www.w3.org/2000/svg" xmlns:xlink="http://www.w3.org/1999/xlink" x="0px" y="0px"
	 viewBox="0 0 24 24" style="enable-background:new 0 0 24 24;" xml:space="preserve">
<style type="text/css">
	.st0{fill:#FFE576;fill-opacity:0;}
	.st1{fill:#FFE576;}
</style>
<g>
	<g>
		<rect class="st0" width="24" height="24"/>
		<path class="st1" d="M21,11.4c0-0.4-0.3-0.7-0.6-0.9l-2.1-0.9l2.3-1.3C20.8,8.1,21,7.7,21,7.4c0-0.4-0.3-0.7-0.6-0.9l-8-3.4
			c-0.2-0.1-0.5-0.1-0.8,0l-8,3.4C3.3,6.6,3,7,3,7.4c0,0.4,0.2,0.7,0.5,0.9l2.3,1.3l-2.2,0.9C3.3,10.6,3,11,3,11.4
			c0,0.4,0.2,0.7,0.5,0.9l2.3,1.3l-2.2,0.9C3.3,14.6,3,15,3,15.4c0,0.4,0.2,0.7,0.5,0.9l8,4.6c0.3,0.2,0.7,0.2,1,0l8-4.6
			c0.3-0.2,0.5-0.5,0.5-0.9c0-0.4-0.3-0.7-0.6-0.9l-2.1-0.9l2.3-1.3C20.8,12.1,21,11.7,21,11.4z M12,5.1l5.8,2.4L12,10.9L6.2,7.5
			L12,5.1z M11.5,12.9c0.3,0.2,0.7,0.2,1,0l3.6-2l1.7,0.7L12,14.9l-5.8-3.3l1.7-0.7L11.5,12.9z M17.8,15.5L12,18.9l-5.8-3.3l1.7-0.7
			l3.6,2.1c0.3,0.2,0.7,0.2,1,0l3.6-2.1L17.8,15.5z"/>
	</g>
</g>
</svg>
